<svg width="1440" height="301" viewBox="0 0 1440 301" fill="none" xmlns="http://www.w3.org/2000/svg">
<g clip-path="url(#clip0_201:243)">
<path d="M1254 0H1359V143C1359 148.523 1354.52 153 1349 153H1264C1258.48 153 1254 148.523 1254 143V0Z" fill="#FFB257"/>
<path d="M1190 0H1264V30C1264 35.5228 1259.52 40 1254 40H1200C1194.48 40 1190 35.5228 1190 30V0Z" fill="#FF8A00"/>
<path d="M1103 0H1207V82C1207 87.5228 1202.52 92 1197 92H1113C1107.48 92 1103 87.5228 1103 82V0Z" fill="#FFB257"/>
<path d="M551 0H631V137C631 142.523 626.523 147 621 147H561C555.477 147 551 142.523 551 137V0Z" fill="#FFDF34"/>
<path d="M779 0H880V200C880 205.523 875.523 210 870 210H789C783.477 210 779 205.523 779 200V0Z" fill="#FFDF34"/>
<path d="M346 0H450V216C450 221.523 445.523 226 440 226H356C350.477 226 346 221.523 346 216V0Z" fill="#FFB257"/>
<path d="M1005 0H1110V248C1110 253.523 1105.52 258 1100 258H1015C1009.48 258 1005 253.523 1005 248V0Z" fill="#FFB257"/>
<path d="M911 0H1060V216C1060 221.523 1055.52 226 1050 226H921C915.477 226 911 221.523 911 216V0Z" fill="#FFB257"/>
<path d="M567 0H693V44C693 49.5228 688.523 54 683 54H577C571.477 54 567 49.5228 567 44V0Z" fill="#FFB257"/>
<path d="M1372 0H1440V248C1440 253.523 1435.52 258 1430 258H1382C1376.48 258 1372 253.523 1372 248V0Z" fill="#FFDF34"/>
<path d="M1060 0H1110V137C1110 142.523 1105.52 147 1100 147H1070C1064.48 147 1060 142.523 1060 137V0Z" fill="#FFDF34"/>
<path d="M438 0H563V271C563 276.523 558.523 281 553 281H448C442.477 281 438 276.523 438 271V0Z" fill="#FF8A00"/>
<path d="M849 0H974V86C974 91.5228 969.523 96 964 96H859C853.477 96 849 91.5228 849 86V0Z" fill="#FF8A00"/>
<path d="M679 0H756V80C756 85.5228 751.523 90 746 90H689C683.477 90 679 85.5228 679 80V0Z" fill="#FFB257"/>
<path d="M699 0H803V125C803 130.523 798.523 135 793 135H709C703.477 135 699 130.523 699 125V0Z" fill="#FFB257"/>
<path d="M637 0H679V164C679 169.523 674.523 174 669 174H647C641.477 174 637 169.523 637 164V0Z" fill="#FF8A00"/>
<path d="M1336 0H1409V71C1409 76.5228 1404.52 81 1399 81H1346C1340.48 81 1336 76.5228 1336 71V0Z" fill="#FF8A00"/>
<path d="M98 0H178V248C178 253.523 173.523 258 168 258H108C102.477 258 98 253.523 98 248V0Z" fill="#FFDF34"/>
<path d="M178 0H255V152C255 157.523 250.523 162 245 162H188C182.477 162 178 157.523 178 152V0Z" fill="#FFB257"/>
<path d="M22 0H78V7C78 12.5228 73.5228 17 68 17H32C26.4772 17 22 12.5228 22 7V0Z" fill="#FFB257"/>
<path d="M-44 0H36V64C36 69.5228 31.5228 74 26 74H-34C-39.5228 74 -44 69.5228 -44 64V0Z" fill="#FFDF34"/>
<path d="M22 0H99V184C99 189.523 94.5228 194 89 194H32C26.4772 194 22 189.523 22 184V0Z" fill="#FF8A00"/>
<path d="M200 0H288V91C288 96.5229 283.523 101 278 101H210C204.477 101 200 96.5228 200 91V0Z" fill="#FF8A00"/>
<path d="M265 0H349V132C349 137.523 344.523 142 339 142H275C269.477 142 265 137.523 265 132V0Z" fill="#FF8A00"/>
<path d="M288 0H385V152C385 157.523 380.523 162 375 162H298C292.477 162 288 157.523 288 152V0Z" fill="#FFDF34"/>
</g>
<defs>
<clipPath id="clip0_201:243">
<rect width="1440" height="301" fill="white"/>
</clipPath>
</defs>
</svg>
