<svg width="1440" height="774" viewBox="0 0 1440 774" fill="none" xmlns="http://www.w3.org/2000/svg">
<g clip-path="url(#clip0_117:247)">
<path d="M551 509C551 503.477 555.477 499 561 499H621C626.523 499 631 503.477 631 509V774H551V509Z" fill="#FFDF34"/>
<path d="M779 528C779 522.477 783.477 518 789 518H870C875.523 518 880 522.477 880 528V774H779V528Z" fill="#FFDF34"/>
<path d="M346 575C346 569.477 350.477 565 356 565H440C445.523 565 450 569.477 450 575V774H346V575Z" fill="#FFB257"/>
<path d="M1131 452C1131 446.477 1135.48 442 1141 442H1202C1207.52 442 1212 446.477 1212 452V774H1131V452Z" fill="#FFDF34"/>
<path d="M1005 519C1005 513.477 1009.48 509 1015 509H1100C1105.52 509 1110 513.477 1110 519V774H1005V519Z" fill="#FFB257"/>
<path d="M1005 463C1005 457.477 1009.48 453 1015 453H1018C1023.52 453 1028 457.477 1028 463V537H1005V463Z" fill="#FFB257"/>
<path d="M1037 487C1037 481.477 1041.48 477 1047 477H1050C1055.52 477 1060 481.477 1060 487V561H1037V487Z" fill="#FFB257"/>
<path d="M911 605C911 599.477 915.477 595 921 595H1050C1055.52 595 1060 599.477 1060 605V774H911V605Z" fill="#FFB257"/>
<path d="M567 430C567 424.477 571.477 420 577 420H683C688.523 420 693 424.477 693 430V774H567V430Z" fill="#FFB257"/>
<path d="M578 324C578 318.477 582.477 314 588 314H670C675.523 314 680 318.477 680 324V706H578V324Z" fill="#FFB257"/>
<path d="M588 283C588 277.477 592.477 273 598 273H661C666.523 273 671 277.477 671 283V665H588V283Z" fill="#FFB257"/>
<path d="M596 253C596 247.477 600.477 243 606 243H655C660.523 243 665 247.477 665 253V635H596V253Z" fill="#FFB257"/>
<path d="M604 234C604 228.477 608.477 224 614 224H647C652.523 224 657 228.477 657 234V616H604V234Z" fill="#FFB257"/>
<rect x="616" y="117" width="28" height="392" rx="10" fill="#FFB257"/>
<rect x="629" y="91" width="3" height="148" rx="1.5" fill="#FFB257"/>
<path d="M1254 581C1254 575.477 1258.48 571 1264 571H1349C1354.52 571 1359 575.477 1359 581V774H1254V581Z" fill="#FFB257"/>
<path d="M1285 383C1285 377.477 1289.48 373 1295 373H1337C1342.52 373 1347 377.477 1347 383V774H1285V383Z" fill="#FFB257"/>
<path d="M1103 622C1103 616.477 1107.48 612 1113 612H1197C1202.52 612 1207 616.477 1207 622V774H1103V622Z" fill="#FFB257"/>
<path d="M1372 368C1372 362.477 1376.48 358 1382 358H1430C1435.52 358 1440 362.477 1440 368V774H1372V368Z" fill="#FFDF34"/>
<path d="M408 408C408 402.477 412.477 398 418 398H440C445.523 398 450 402.477 450 408V645H408V408Z" fill="#FFB257"/>
<path d="M492 410C492 404.477 496.477 400 502 400H553C558.523 400 563 404.477 563 410V774H492V410Z" fill="#FFDF34"/>
<path d="M296 648C296 642.477 300.477 638 306 638H328C333.523 638 338 642.477 338 648V774H296V648Z" fill="#FFB257"/>
<path d="M1060 646C1060 640.477 1064.48 636 1070 636H1100C1105.52 636 1110 640.477 1110 646V774H1060V646Z" fill="#FFDF34"/>
<path d="M438 643C438 637.477 442.477 633 448 633H553C558.523 633 563 637.477 563 643V774H438V643Z" fill="#FF8A00"/>
<path d="M849 596C849 590.477 853.477 586 859 586H964C969.523 586 974 590.477 974 596V774H849V596Z" fill="#FF8A00"/>
<path d="M911 571C911 565.477 915.477 561 921 561H964C969.523 561 974 565.477 974 571V774H911V571Z" fill="#FF8A00"/>
<path d="M830.5 482L875.966 537.5H785.034L830.5 482Z" fill="#FFDF34"/>
<path d="M679 561C679 555.477 683.477 551 689 551H746C751.523 551 756 555.477 756 561V774H679V561Z" fill="#FFB257"/>
<path d="M699 666C699 660.477 703.477 656 709 656H793C798.523 656 803 660.477 803 666V774H699V666Z" fill="#FFB257"/>
<path d="M637 616C637 610.477 641.477 606 647 606H669C674.523 606 679 610.477 679 616V774H637V616Z" fill="#FF8A00"/>
<path d="M1336 605C1336 599.477 1340.48 595 1346 595H1399C1404.52 595 1409 599.477 1409 605V774H1336V605Z" fill="#FF8A00"/>
<path d="M1207 156C1207 150.477 1211.48 146 1217 146H1254C1259.52 146 1264 150.477 1264 156V774H1207V156Z" fill="#FF8A00"/>
<rect x="1207" y="122" width="57" height="12" rx="6" fill="#FF8A00"/>
<rect x="1233" width="6" height="501" rx="3" fill="#FF8A00"/>
<path d="M98 412C98 406.477 102.477 402 108 402H168C173.523 402 178 406.477 178 412V774H98V412Z" fill="#FFDF34"/>
<rect x="109" y="337" width="57" height="169" rx="10" fill="#FFDF34"/>
<rect x="125" y="257" width="24" height="164" rx="10" fill="#FFDF34"/>
<rect x="135" y="193" width="4" height="101" rx="2" fill="#FFDF34"/>
<path d="M31 563C31 557.477 35.4772 553 41 553H88C93.5228 553 98 557.477 98 563V774H31V563Z" fill="#FFB257"/>
<path d="M178 589C178 583.477 182.477 579 188 579H245C250.523 579 255 583.477 255 589V774H178V589Z" fill="#FFB257"/>
<path d="M22 590C22 584.477 26.4772 580 32 580H68C73.5229 580 78 584.477 78 590V774H22V590Z" fill="#FFB257"/>
<path d="M-44 521C-44 515.477 -39.5228 511 -34 511H26C31.5229 511 36 515.477 36 521V774H-44V521Z" fill="#FFDF34"/>
<path d="M22 639C22 633.477 26.4772 629 32 629H89C94.5229 629 99 633.477 99 639V774H22V639Z" fill="#FF8A00"/>
<path d="M200 524C200 518.477 204.477 514 210 514H278C283.523 514 288 518.477 288 524V679H200V524Z" fill="#FF8A00"/>
<path d="M265 561C265 555.477 269.477 551 275 551H339C344.523 551 349 555.477 349 561V774H265V561Z" fill="#FF8A00"/>
<path d="M231 462C231 456.477 235.477 452 241 452H264C269.523 452 274 456.477 274 462V696H231V462Z" fill="#FF8A00"/>
<path d="M290 462C290 456.477 294.477 452 300 452H323C328.523 452 333 456.477 333 462V696H290V462Z" fill="#FF8A00"/>
<path d="M220 528C220 522.477 224.477 518 230 518H307C312.523 518 317 522.477 317 528V774H220V528Z" fill="#FF8A00"/>
<path d="M210 577C210 571.477 214.477 567 220 567H234C239.523 567 244 571.477 244 577V622H210V577Z" fill="#FF8A00"/>
<path d="M288 655C288 649.477 292.477 645 298 645H375C380.523 645 385 649.477 385 655V774H288V655Z" fill="#FFDF34"/>
<path d="M1316.5 347L1347.24 378.5H1285.76L1316.5 347Z" fill="#FFB257"/>
</g>
<defs>
<clipPath id="clip0_117:247">
<rect width="1440" height="774" fill="white"/>
</clipPath>
</defs>
</svg>
